REM DIRINDEX 1\2\4,1\2\5,1\3\6,1\3\7,1\3\8
REM DIRNAME cjc094,folder01,folder02,folder03,folder04,folder05,folder06,folder07
TITLE ""
FILE "LV1_010_WORDS.mp3" MP3
  TRACK 01 AUDIO
    TITLE "0:"
    INDEX 01 00:00:00
  TRACK 02 AUDIO
    TITLE "6:cjc094_0365"
    INDEX 01 00:00:03
  TRACK 03 AUDIO
    TITLE "0:"
    INDEX 01 00:01:60
  TRACK 04 AUDIO
    TITLE "7:cjc094_0366"
    INDEX 01 00:02:40
  TRACK 05 AUDIO
    TITLE "0:"
    INDEX 01 00:03:45
  TRACK 06 AUDIO
    TITLE "8:cjc094_0367"
    INDEX 01 00:03:57
  TRACK 07 AUDIO
    TITLE "0:"
    INDEX 01 00:05:54
  TRACK 08 AUDIO
    TITLE "7:cjc094_0368"
    INDEX 01 00:06:22
  TRACK 09 AUDIO
    TITLE "0:"
    INDEX 01 00:07:27
  TRACK 10 AUDIO
    TITLE "8:cjc094_0369"
    INDEX 01 00:07:45
  TRACK 11 AUDIO
    TITLE "0:"
    INDEX 01 00:09:30
  TRACK 12 AUDIO
    TITLE "7:cjc094_0370"
    INDEX 01 00:10:00
  TRACK 13 AUDIO
    TITLE "0:"
    INDEX 01 00:11:03
  TRACK 14 AUDIO
    TITLE "8:cjc094_0371"
    INDEX 01 00:11:17
  TRACK 15 AUDIO
    TITLE "0:"
    INDEX 01 00:12:69
  TRACK 16 AUDIO
    TITLE "7:cjc094_0372"
    INDEX 01 00:13:41
  TRACK 17 AUDIO
    TITLE "0:"
    INDEX 01 00:14:29
  TRACK 18 AUDIO
    TITLE "8:cjc094_0373"
    INDEX 01 00:14:45
  TRACK 19 AUDIO
    TITLE "0:"
    INDEX 01 00:18:13
  TRACK 20 AUDIO
    TITLE "7:cjc094_0374"
    INDEX 01 00:18:60
  TRACK 21 AUDIO
    TITLE "0:"
    INDEX 01 00:19:56
  TRACK 22 AUDIO
    TITLE "8:cjc094_0375"
    INDEX 01 00:19:65
  TRACK 23 AUDIO
    TITLE "0:"
    INDEX 01 00:22:62
  TRACK 24 AUDIO
    TITLE "7:cjc094_0376"
    INDEX 01 00:23:30
  TRACK 25 AUDIO
    TITLE "0:"
    INDEX 01 00:24:10
  TRACK 26 AUDIO
    TITLE "8:cjc094_0377"
    INDEX 01 00:24:37
  TRACK 27 AUDIO
    TITLE "0:"
    INDEX 01 00:27:39
  TRACK 28 AUDIO
    TITLE "7:cjc094_0378"
    INDEX 01 00:28:02
  TRACK 29 AUDIO
    TITLE "0:"
    INDEX 01 00:29:07
  TRACK 30 AUDIO
    TITLE "8:cjc094_0379"
    INDEX 01 00:29:25
  TRACK 31 AUDIO
    TITLE "0:"
    INDEX 01 00:32:13
  TRACK 32 AUDIO
    TITLE "7:cjc094_0380"
    INDEX 01 00:32:66
  TRACK 33 AUDIO
    TITLE "0:"
    INDEX 01 00:34:16
  TRACK 34 AUDIO
    TITLE "8:cjc094_0381"
    INDEX 01 00:34:32
  TRACK 35 AUDIO
    TITLE "0:"
    INDEX 01 00:35:33
  TRACK 36 AUDIO
    TITLE "7:cjc094_0382"
    INDEX 01 00:36:13
  TRACK 37 AUDIO
    TITLE "0:"
    INDEX 01 00:37:16
  TRACK 38 AUDIO
    TITLE "8:cjc094_0383"
    INDEX 01 00:37:32
  TRACK 39 AUDIO
    TITLE "0:"
    INDEX 01 00:41:59
  TRACK 40 AUDIO
    TITLE "7:cjc094_0384"
    INDEX 01 00:42:29
  TRACK 41 AUDIO
    TITLE "0:"
    INDEX 01 00:43:25
  TRACK 42 AUDIO
    TITLE "8:cjc094_0385"
    INDEX 01 00:43:58
  TRACK 43 AUDIO
    TITLE "0:"
    INDEX 01 00:46:02
  TRACK 44 AUDIO
    TITLE "7:cjc094_0386"
    INDEX 01 00:46:47
  TRACK 45 AUDIO
    TITLE "0:"
    INDEX 01 00:47:50
  TRACK 46 AUDIO
    TITLE "8:cjc094_0387"
    INDEX 01 00:47:70
  TRACK 47 AUDIO
    TITLE "0:"
    INDEX 01 00:50:07
  TRACK 48 AUDIO
    TITLE "7:cjc094_0388"
    INDEX 01 00:50:50
  TRACK 49 AUDIO
    TITLE "0:"
    INDEX 01 00:51:46
  TRACK 50 AUDIO
    TITLE "8:cjc094_0389"
    INDEX 01 00:51:62
  TRACK 51 AUDIO
    TITLE "0:"
    INDEX 01 00:56:02
  TRACK 52 AUDIO
    TITLE "7:cjc094_0390"
    INDEX 01 00:56:35
  TRACK 53 AUDIO
    TITLE "0:"
    INDEX 01 00:57:33
  TRACK 54 AUDIO
    TITLE "8:cjc094_0391"
    INDEX 01 00:57:45
  TRACK 55 AUDIO
    TITLE "0:"
    INDEX 01 01:00:06
  TRACK 56 AUDIO
    TITLE "7:cjc094_0392"
    INDEX 01 01:00:59
  TRACK 57 AUDIO
    TITLE "0:"
    INDEX 01 01:01:52
  TRACK 58 AUDIO
    TITLE "8:cjc094_0393"
    INDEX 01 01:01:66
  TRACK 59 AUDIO
    TITLE "0:"
    INDEX 01 01:05:15
  TRACK 60 AUDIO
    TITLE "7:cjc094_0394"
    INDEX 01 01:05:58
  TRACK 61 AUDIO
    TITLE "0:"
    INDEX 01 01:06:55
  TRACK 62 AUDIO
    TITLE "8:cjc094_0395"
    INDEX 01 01:07:00
  TRACK 63 AUDIO
    TITLE "0:"
    INDEX 01 01:07:68
  TRACK 64 AUDIO
    TITLE "7:cjc094_0396"
    INDEX 01 01:08:40
  TRACK 65 AUDIO
    TITLE "0:"
    INDEX 01 01:09:44
  TRACK 66 AUDIO
    TITLE "8:cjc094_0397"
    INDEX 01 01:09:57
  TRACK 67 AUDIO
    TITLE "0:"
    INDEX 01 01:10:61
  TRACK 68 AUDIO
    TITLE "7:cjc094_0398"
    INDEX 01 01:11:31
  TRACK 69 AUDIO
    TITLE "0:"
    INDEX 01 01:12:34
  TRACK 70 AUDIO
    TITLE "8:cjc094_0399"
    INDEX 01 01:12:48
  TRACK 71 AUDIO
    TITLE "0:"
    INDEX 01 01:14:66
  TRACK 72 AUDIO
    TITLE "7:cjc094_0400"
    INDEX 01 01:15:40
  TRACK 73 AUDIO
    TITLE "0:"
    INDEX 01 01:16:40
  TRACK 74 AUDIO
    TITLE "8:cjc094_0401"
    INDEX 01 01:16:60
  TRACK 75 AUDIO
    TITLE "0:"
    INDEX 01 01:17:67
